<?xml version="1.0" standalone="no"?>
<!DOCTYPE svg PUBLIC "-//W3C//DTD SVG 20010904//EN"
 "http://www.w3.org/TR/2001/REC-SVG-20010904/DTD/svg10.dtd">
<svg version="1.0" xmlns="http://www.w3.org/2000/svg"
 width="500.000000pt" height="500.000000pt" viewBox="0 0 500.000000 500.000000"
 preserveAspectRatio="xMidYMid meet">

<g transform="translate(0.000000,500.000000) scale(0.100000,-0.100000)"
fill="#000000" stroke="none">
<path d="M2488 4299 c-12 -30 -1104 -2601 -1363 -3209 -65 -151 -120 -283
-122 -293 -5 -15 4 -17 89 -17 l94 0 547 1287 c301 709 593 1397 650 1531 57
134 107 244 111 243 5 0 130 -285 278 -633 149 -348 424 -995 613 -1438 l343
-805 -979 -3 -979 -2 0 -90 0 -90 1110 0 c611 0 1110 2 1110 4 0 2 -195 464
-434 1027 -238 563 -572 1350 -741 1749 -169 399 -310 731 -315 739 -6 11 -8
11 -12 0z"/>
</g>
</svg>
