<svg xmlns="http://www.w3.org/2000/svg" xmlns:xlink="http://www.w3.org/1999/xlink" width="1366" height="768" preserveAspectRatio="xMidYMid meet" version="1.0" viewBox="0 0 1024.5 576" zoomAndPan="magnify"><path fill="#000" fill-opacity="1" fill-rule="nonzero" d="M 406.800781 518.429688 C 405.804688 516.800781 395.011719 516.699219 393.546875 516.640625 C 393.226562 516.605469 392.964844 516.464844 392.757812 516.222656 C 392.546875 515.984375 392.445312 515.703125 392.453125 515.382812 C 392.453125 513.992188 388.328125 512.960938 387.578125 514.160156 C 386.855469 515.164062 384.285156 511.203125 384.96875 510.78125 C 385.238281 510.507812 383.957031 509.261719 382.136719 508.019531 C 377.039062 504.171875 371.019531 499.75 365.730469 497.492188 C 364.8125 497.386719 364.699219 491.367188 363.476562 491.035156 C 358.867188 488.242188 366.417969 479.988281 361.597656 478.410156 C 360.796875 478.410156 360.394531 477.339844 360.386719 475.164062 C 360.882812 471.921875 358.363281 470.503906 359.664062 468.246094 C 360.34375 467.429688 360.25 467.132812 359.316406 467.132812 C 358.074219 467.132812 356.613281 464.839844 355.703125 461.492188 C 354.144531 455.652344 350.996094 447.640625 350.324219 447.828125 C 349.179688 448.144531 349.296875 446.226562 350.582031 443.710938 C 353.617188 438.75 348.003906 440.714844 346.855469 436.3125 C 345.113281 432.230469 344.050781 433.34375 343.402344 428.410156 C 343.402344 424.441406 338.214844 418.371094 339.414062 415.015625 C 341.003906 411.246094 330.558594 408.332031 334.175781 404.632812 C 336.53125 400.054688 331.425781 402.464844 330.652344 397.515625 C 328.730469 393.285156 327.761719 387.425781 326.359375 383.851562 C 325.023438 383.851562 322.308594 377.015625 322.683594 374.613281 C 323.601562 371.265625 323 364.9375 319.980469 363.894531 C 319.308594 363.894531 318.746094 363.027344 318.730469 361.941406 C 318.636719 358.996094 316.109375 356.234375 316.789062 352.921875 C 316.996094 351.316406 316.789062 350.027344 316.382812 350.027344 C 314.46875 351.65625 314.875 330.707031 312.539062 332.667969 C 311.296875 332.375 312.488281 329.375 311.578125 328.609375 C 311.492188 328.492188 311.425781 328.367188 311.390625 328.226562 C 311.351562 328.085938 311.339844 327.941406 311.359375 327.800781 C 311.375 327.65625 311.417969 327.519531 311.492188 327.394531 C 311.5625 327.265625 311.652344 327.15625 311.765625 327.066406 C 312.808594 325.621094 309.6875 321.648438 310.667969 319.632812 C 311 317.960938 310.734375 317.136719 309.695312 316.738281 C 309.292969 316.554688 308.988281 316.269531 308.777344 315.886719 C 308.5625 315.5 308.484375 315.089844 308.539062 314.652344 C 308.863281 312.433594 307.527344 306.277344 306.585938 305.707031 C 305.613281 304.789062 304.96875 295.628906 303.863281 294.652344 C 302.5625 292.589844 302.832031 283.535156 301.636719 281.21875 C 300.460938 279.171875 300.28125 275.433594 298.878906 274.085938 C 298.488281 273.847656 298.394531 272.835938 298.65625 271.835938 C 298.914062 270.839844 298.65625 269.71875 298.035156 269.335938 C 296.414062 267.722656 297.195312 263.433594 295.691406 261.226562 C 293.910156 257.769531 295.734375 258.671875 294.023438 254.902344 C 292.3125 251.136719 294.585938 251.0625 291.625 248.25 C 288.417969 246.953125 289.796875 236.964844 288.257812 234.832031 C 287.058594 232.558594 287.234375 227.414062 285.066406 224.992188 C 283.492188 222.867188 283.339844 222.140625 284.21875 221.070312 C 286.445312 219.792969 281.332031 214.835938 283.171875 213.570312 C 284.503906 212.226562 284.371094 210.308594 282.820312 208.585938 C 281.632812 207.285156 281.679688 206.914062 283.253906 204.917969 C 287.949219 197.816406 281.332031 188.546875 275.015625 181.921875 C 270.046875 177.863281 271.707031 176.679688 267.648438 174.449219 C 266.203125 173.851562 265.300781 173.097656 265.605469 172.785156 C 266.578125 171.800781 258.742188 162.464844 256.132812 161.488281 C 253.804688 160.523438 256.40625 159.230469 253.488281 158.332031 C 250.816406 157.507812 248.945312 151.476562 246.777344 150.1875 C 244.53125 149.335938 245.890625 143.9375 243.765625 143.214844 C 242.679688 142.808594 242.472656 141.949219 242.832031 139.664062 C 244.3125 135.539062 239.828125 136.53125 241.605469 133.347656 C 242.695312 131.945312 242.046875 126.835938 243.65625 126.203125 C 244.25 126.203125 243.785156 125.476562 242.625 124.558594 C 240.578125 122.960938 240.566406 122.835938 242.003906 120.644531 C 243.0625 116.832031 245.128906 116.347656 247.328125 112.925781 C 249.394531 109.941406 251.03125 111.261719 253.199219 108.839844 C 254.882812 106.671875 257.699219 107.574219 259.476562 105.945312 C 264.117188 103.652344 272.9375 103.351562 277.121094 100.441406 C 277.777344 99.546875 282.285156 97.179688 283.621094 97.050781 C 284.8125 96.898438 286.742188 97.144531 286.769531 95.378906 C 286.769531 94.4375 287.335938 94.207031 288.730469 94.5625 C 290.246094 94.9375 291.164062 94.417969 292.703125 92.332031 C 293.835938 90.792969 295.179688 89.816406 295.902344 90.074219 C 296.625 90.335938 296.929688 90.074219 296.625 89.351562 C 294.96875 86.597656 302.996094 87.441406 304.082031 85.222656 C 305.191406 84.214844 306.488281 83.632812 307.980469 83.480469 C 311.890625 83.890625 314.171875 78.175781 318.910156 78.414062 C 324.378906 78.523438 328.535156 77.792969 329.277344 76.59375 C 329.878906 75.636719 330.363281 75.609375 331.710938 76.441406 C 333.0625 77.273438 333.605469 77.234375 334.4375 76.230469 C 335.976562 74.464844 338.613281 75.253906 340.554688 74.0625 C 344.761719 72.15625 362.402344 70.023438 362.027344 67.941406 C 365.421875 65.5625 367.261719 66.253906 371.222656 64.078125 C 375.621094 62.191406 373.308594 65.699219 376.945312 63.933594 C 380.1875 62.769531 388.863281 60.648438 391.59375 61.84375 C 391.585938 62.105469 391.671875 62.332031 391.851562 62.523438 C 392.03125 62.710938 392.25 62.8125 392.511719 62.820312 C 393.71875 62.558594 391.917969 61.082031 393.753906 61.074219 C 394.535156 61.074219 394.925781 61.480469 394.628906 61.953125 C 393.609375 64.960938 403.191406 60.097656 404.179688 61.046875 C 403.558594 62.277344 407.320312 61.871094 407.699219 62.8125 C 408.679688 64.246094 414.445312 61.472656 415.464844 62.921875 C 416.945312 64.460938 417.058594 60.75 418.527344 61.625 C 419.738281 62.347656 438.515625 62.847656 439.65625 62.167969 C 441.066406 61.320312 443.949219 61.308594 444.980469 62.117188 C 445.582031 62.601562 446.355469 62.394531 447.039062 61.582031 C 450.820312 57.699219 453.824219 64.832031 458.296875 60.722656 C 460.109375 58.59375 464.457031 61.445312 466.734375 60.195312 C 467.839844 59.78125 468.859375 59.824219 469.152344 60.308594 C 469.695312 61.164062 478.023438 61.199219 479.527344 60.308594 C 484.117188 60.027344 490.566406 58.625 495.558594 59.714844 C 505.816406 60.917969 511.972656 61.046875 514.644531 60.113281 C 516.964844 59.304688 517.6875 59.363281 518.410156 60.375 C 520.332031 61.710938 528.097656 62.347656 530.691406 61.945312 C 533.804688 60.75 541.671875 65.089844 544.855469 63.578125 C 547.074219 61.410156 548.910156 66.054688 551.027344 64.5625 C 553.808594 62.132812 558.574219 65.929688 561.378906 65.910156 C 562.636719 65.183594 567.671875 68.1875 568.898438 68.078125 C 570.753906 68.222656 569.457031 70.398438 572.179688 69.480469 C 574.707031 68.542969 576.125 71.464844 578.203125 71.550781 C 579.886719 71.550781 588.738281 75.167969 590.519531 74.890625 C 596.472656 74.03125 594.183594 77.386719 598.308594 79.234375 C 601.609375 81.613281 604.925781 80.902344 607.476562 83.574219 C 608.039062 84.484375 608.921875 85.019531 609.476562 84.847656 C 610.769531 84.324219 614.210938 89.054688 615.632812 88.28125 C 616.96875 87.777344 625.515625 96.296875 625.515625 98.132812 C 625.515625 98.859375 626.597656 99.269531 628.40625 99.269531 C 632.015625 98.164062 635.476562 106.148438 637.398438 107.804688 C 639.097656 110.273438 638.25 113.757812 639.71875 117.066406 C 642.304688 124.632812 645.316406 118.230469 650.148438 118.359375 C 653.761719 118.605469 656.039062 115.964844 659.28125 116.191406 C 660.472656 116.304688 661.703125 116 662.019531 115.511719 C 663.320312 114.351562 673.296875 114.453125 674.878906 113.144531 C 678.492188 111.90625 680.179688 110.011719 683.382812 108.695312 C 688.851562 108.957031 703.972656 105.800781 711.554688 104.984375 C 716.75 104.8125 718.367188 104.414062 719.992188 102.894531 C 722.296875 100.722656 723.09375 100.570312 723.65625 102.105469 C 723.976562 102.972656 724.285156 102.972656 725.210938 102.105469 C 727.261719 100.464844 729.542969 101.316406 732.117188 99.691406 C 735.433594 98.011719 733.988281 99.785156 736.449219 101.058594 C 739.484375 103.074219 741.710938 96.859375 744.171875 100.585938 C 746.304688 102.800781 751.347656 100.992188 753.515625 104.269531 C 754.808594 105.585938 756.359375 106.707031 756.960938 106.757812 C 763.460938 107.15625 757.988281 107.964844 763.265625 111.90625 C 766.488281 114.800781 765.976562 116.292969 767.941406 118.042969 C 768.628906 118.308594 769.457031 119.757812 769.789062 121.261719 C 770.222656 124.582031 773.539062 125.28125 773.632812 128.398438 C 773.496094 131.132812 777.195312 133.347656 777.09375 136.054688 C 777.210938 139.089844 779.917969 139.722656 779.695312 143.207031 C 779.277344 146.824219 781.59375 145.175781 781.328125 148.089844 C 781.117188 151.605469 783.796875 157.964844 782.332031 159.945312 C 781.90625 160.726562 781.847656 162.722656 782.203125 164.375 C 783.796875 166.925781 778.84375 177.089844 780.445312 179.222656 C 781.398438 180.78125 779.992188 186.90625 778.683594 186.90625 C 777.703125 186.90625 777.757812 191.882812 778.757812 192.492188 C 779.753906 193.097656 778.851562 196.449219 777.535156 196.449219 C 776.089844 196.449219 775.253906 199.824219 776.277344 201.742188 C 776.828125 202.769531 776.785156 203.488281 776.164062 203.914062 C 774.777344 204.476562 776.703125 210.226562 775.359375 210.808594 C 774.875 214.929688 772.007812 220.484375 771.277344 225.476562 C 771.097656 229.527344 769.472656 230.539062 769.546875 233.167969 C 770 234.980469 767.339844 237.441406 767.566406 239.445312 C 767.523438 242.28125 766.085938 242.105469 766.570312 245.484375 C 767.398438 248.0625 764.132812 251.640625 764.402344 253.441406 C 765.125 254.164062 762.8125 257.058594 764.113281 257.644531 C 765.296875 259.042969 763.816406 263.144531 763.671875 264.996094 C 763.492188 266.1875 762.949219 267.28125 762.457031 267.445312 C 761.246094 267.765625 760.703125 273.753906 759.683594 274.1875 C 758.664062 274.621094 759.359375 278.066406 757.691406 278.03125 C 756.867188 278.03125 756.554688 278.796875 756.757812 280.410156 C 757.480469 285.125 752.105469 293.496094 753.695312 299.28125 C 754.28125 301.53125 753.601562 304.050781 752.410156 304.050781 C 752.214844 304.078125 752.035156 304.144531 751.863281 304.242188 C 751.695312 304.34375 751.550781 304.472656 751.429688 304.625 C 751.3125 304.78125 751.226562 304.953125 751.171875 305.144531 C 751.117188 305.332031 751.101562 305.523438 751.125 305.71875 C 751.125 306.648438 749.917969 308.332031 748.464844 309.488281 C 741.636719 315.335938 748.066406 322.175781 741.515625 328.441406 C 739.40625 330.25 739.160156 333.953125 738.582031 336.441406 C 738.421875 338.769531 734.039062 339.785156 733.785156 341.730469 C 733.46875 343.949219 731.15625 344.195312 730.597656 346.996094 C 730.144531 350.691406 725.375 349.042969 724.503906 351.804688 C 724.21875 353.816406 720.773438 353.875 720.992188 355.929688 C 721.011719 356.140625 720.992188 356.34375 720.933594 356.546875 C 720.875 356.746094 720.78125 356.929688 720.648438 357.09375 C 720.515625 357.257812 720.359375 357.390625 720.175781 357.492188 C 719.992188 357.59375 719.796875 357.65625 719.589844 357.679688 C 714.808594 358.484375 712.421875 367.003906 706.945312 368.355469 C 703.632812 368.921875 700.378906 373.582031 697.867188 374.316406 C 694.976562 374.941406 690.835938 379.886719 687.203125 380.4375 C 685.179688 381.050781 683.078125 382.058594 682.550781 382.710938 C 681.742188 384.15625 679.15625 383.246094 679.761719 385.167969 C 680.375 386.765625 674.914062 389.40625 673.621094 388.148438 C 672.328125 386.890625 671.410156 387.214844 671.410156 389.074219 C 672.132812 393.234375 666.203125 387.351562 664.5625 390.722656 C 663.644531 391.648438 662.503906 392.054688 661.898438 391.6875 C 649.78125 390.035156 656.117188 398.957031 648.4375 396.027344 C 645.679688 393.675781 642.136719 399.644531 640.265625 397.40625 C 639.386719 396.566406 638.34375 396.035156 637.148438 395.816406 C 635.457031 395.492188 634.667969 395.945312 633.535156 397.886719 C 632.226562 400.445312 631.09375 399.6875 630.71875 401.675781 C 630.277344 405.164062 627.828125 399.894531 625.660156 402.203125 C 624.257812 403.085938 623.414062 403.101562 621.570312 402.253906 C 619.570312 401.335938 619.042969 401.414062 617.820312 402.789062 C 616.941406 404.960938 609.289062 404.148438 608.429688 402.40625 C 607.925781 401.089844 607.230469 401.558594 602.765625 406.253906 C 599.523438 408.960938 597.058594 419.867188 595.074219 424.289062 C 593.875 424.578125 595.007812 432.246094 592.941406 431.601562 C 590.773438 431.558594 593.339844 434.9375 591.300781 435.378906 C 588.988281 437.546875 590.277344 442.726562 587.652344 446.335938 C 585.824219 449.859375 585.578125 450.972656 586.453125 451.53125 C 587.777344 452.347656 586.953125 454.15625 585.269531 454.15625 C 581.535156 453.433594 581.75 464.53125 579.589844 464.566406 C 578.210938 465.570312 577.929688 470.648438 575.691406 472.003906 C 573.066406 473.984375 574.449219 476.34375 571.78125 477.332031 C 570.828125 477.585938 570.046875 478.171875 570.046875 478.644531 C 569.960938 479.820312 565.128906 482.808594 566.140625 484.507812 C 566.773438 487.308594 562.070312 486.390625 561.660156 489.6875 C 560.867188 491.859375 560.164062 492.328125 558.089844 492.328125 C 556.242188 492.328125 555.398438 492.820312 555.070312 494.066406 C 554.847656 496.4375 550.601562 495.332031 549.691406 496.667969 C 549.351562 497.796875 544.191406 497.175781 544.0625 498.398438 C 543.179688 499.742188 539.136719 499.121094 537.605469 500.625 C 534.714844 502.746094 535.4375 499.535156 532.742188 501.03125 C 531.808594 501.53125 531.058594 501.644531 531.058594 501.292969 C 524.367188 505.34375 507.875 505.820312 497.320312 508.589844 C 496.597656 509.457031 493.382812 509.683594 492.597656 510.578125 C 491.398438 511.542969 486.902344 510.03125 485.652344 511.347656 C 484.980469 511.902344 482.765625 512.570312 480.667969 512.792969 C 475.417969 513.429688 476.4375 514.964844 470.730469 514.863281 C 461.808594 515.875 454.914062 517.753906 446.167969 518.710938 C 442.792969 519.867188 407.097656 520.214844 406.789062 518.441406 Z M 429.8125 505.992188 C 432.664062 505.097656 434.320312 508.480469 436.839844 506.933594 C 438.71875 505.148438 447.324219 509.304688 448.695312 506.6875 C 450.226562 505.285156 453.101562 505.582031 453.101562 507.136719 C 454.777344 510.03125 456.292969 504.777344 458.484375 505.601562 C 460.671875 506.425781 463.027344 502.601562 465.023438 502.617188 C 469.804688 501.34375 477.417969 505.160156 478.640625 501.890625 C 478.722656 501.613281 478.847656 501.359375 479.015625 501.121094 C 479.183594 500.886719 479.386719 500.6875 479.625 500.523438 C 479.859375 500.355469 480.117188 500.234375 480.398438 500.15625 C 480.675781 500.078125 480.957031 500.050781 481.246094 500.070312 C 484.324219 499.894531 483.457031 497.652344 487.394531 497.726562 C 494.699219 497.21875 495.710938 497 496.535156 495.511719 C 497.566406 493.652344 500.382812 493.523438 501.070312 495.289062 C 501.578125 496.605469 502.550781 496.410156 508.199219 493.839844 C 512.21875 492.597656 513.554688 493.949219 518.417969 490.222656 C 520.757812 488.175781 527.085938 488.464844 529.070312 486.476562 C 529.792969 485.507812 531.09375 485.253906 533.585938 485.527344 C 537.132812 485.941406 542.34375 483.757812 542.34375 481.847656 C 546.75 480.15625 550.882812 480.15625 558.0625 473.890625 C 561.386719 470.910156 562.84375 472.242188 565.582031 469.832031 C 566.703125 468.160156 570.035156 467.90625 569.851562 465.984375 C 568.277344 461.796875 568.300781 461.128906 570.027344 460.585938 C 572.011719 460.328125 572.351562 456.246094 573.636719 455.792969 C 575.082031 453.339844 573.703125 448.558594 577.25 445.945312 C 581.585938 443.226562 579.511719 436.976562 581.304688 433.238281 C 584.980469 432.902344 584.539062 423.832031 586 421.140625 C 587.445312 419.695312 588.84375 412.792969 590.269531 411.375 C 591.324219 410.246094 591.503906 409.445312 591.980469 403.738281 C 593.636719 399.570312 593.925781 388.828125 595.109375 384.726562 C 596.367188 383.945312 597.714844 375.359375 596.742188 374.382812 C 595.527344 373.167969 596.777344 370.085938 598.742188 369.464844 C 601.761719 367.425781 600.808594 359.980469 603.800781 357.414062 C 605.46875 355.367188 603.328125 355.242188 605.390625 353.074219 C 608.277344 349.738281 604.046875 354.113281 603.046875 353 C 601.898438 352.277344 601.878906 348.585938 603.046875 346.445312 C 604.109375 345.050781 604.082031 338.539062 604.976562 337.289062 C 603.582031 329.851562 604.832031 316.101562 606.855469 308.273438 C 608.34375 304.65625 606.984375 303.210938 608.039062 301.472656 C 609.578125 299.917969 609.542969 295.347656 610.828125 293.121094 C 612.273438 290.777344 611.023438 288.1875 612.535156 286.609375 C 616.144531 280.496094 613.804688 264.710938 615.351562 256.15625 C 616.210938 251.859375 616.890625 250.367188 618.355469 249.753906 C 621.066406 248.550781 622.113281 244.292969 622.113281 234.394531 C 622.113281 231.648438 622.515625 230.207031 623.398438 229.882812 C 625.191406 229.160156 624.351562 225.390625 625.703125 224.328125 C 626.902344 222.53125 626.359375 206.605469 627.3125 200.824219 C 627.207031 195.761719 631.765625 190.160156 628.035156 186.320312 C 626.910156 185.597656 627.105469 182.132812 628.332031 180.894531 C 629.417969 179.808594 629.777344 176.730469 630.132812 167.042969 C 629.902344 159.621094 632.976562 162.703125 631.988281 155.832031 C 630.824219 152.351562 634.03125 143.664062 632.328125 141.617188 C 631.554688 141.132812 631.519531 140.429688 632.191406 138.945312 C 633.425781 136.964844 631.621094 134.246094 632.492188 132.589844 C 635.417969 129.328125 631.621094 126.503906 628.6875 125.050781 C 630.050781 123.707031 634.054688 122.199219 631.671875 119.710938 C 630.507812 118.011719 630.722656 113.265625 629.503906 112.210938 C 625.726562 112.730469 626.738281 117.382812 623.253906 117.414062 C 621.40625 116.355469 614.585938 124.320312 613.386719 122.589844 C 612.902344 121.816406 611.984375 122.257812 610.054688 124.242188 C 607.355469 127.335938 606.117188 126.195312 603.878906 128.261719 C 603.347656 128.953125 602.652344 129.386719 601.796875 129.558594 C 600.160156 129.765625 598.078125 133.261719 596.019531 133.03125 C 595.027344 133.03125 594.457031 133.40625 594.726562 133.855469 C 595.09375 135.183594 587.277344 136.746094 587.003906 137.472656 C 581.714844 138.613281 578.773438 139.640625 572.46875 140.363281 C 567.171875 140.566406 567.773438 141.542969 564.425781 142.1875 C 550.945312 142.1875 548.535156 145.933594 535.53125 145.964844 C 531.425781 146.6875 525.8125 148.25 521.761719 149.34375 C 516.242188 151.1875 506.9375 150.023438 503.917969 152.308594 C 499.84375 154.109375 499.898438 154.09375 499.898438 152.480469 C 499.898438 151.035156 498.550781 150.746094 497.734375 152.046875 C 497.480469 153.167969 490.507812 152.613281 490.363281 153.695312 C 490.363281 154.960938 487.640625 155.613281 486.441406 154.621094 C 485.660156 153.980469 485.15625 153.980469 484.757812 154.621094 C 483.117188 156.164062 479.058594 154.882812 477.664062 157.695312 C 476.125 161.046875 462.898438 161.550781 459.503906 161.929688 C 455.007812 161.980469 454.242188 164.359375 450.007812 164.691406 C 445.210938 165.066406 439.765625 166.074219 438.820312 166.753906 C 437.375 167.695312 432.117188 167.476562 430.546875 168.5625 C 429.574219 169.53125 421.625 169.003906 421.054688 170.328125 C 420.78125 171.457031 418.886719 170.246094 417.109375 171.671875 C 414.804688 173.683594 409.035156 171.085938 406.816406 171.808594 C 405.4375 172.621094 401.109375 171.550781 399.765625 172.929688 C 398.789062 173.742188 397.964844 173.761719 396.355469 173.023438 C 395.179688 172.496094 393.632812 172.300781 392.902344 172.5625 C 389.476562 172.664062 386.832031 169.207031 382.066406 169.734375 C 369.992188 167.359375 351.160156 168.917969 338.359375 163.222656 C 334.539062 161.828125 330.230469 160.84375 324.027344 156.417969 C 320.125 153.558594 310.605469 151.925781 307.539062 149.863281 C 306.753906 148.175781 303.691406 149.863281 303.207031 148.65625 C 302.722656 147.445312 300.316406 149.21875 299.476562 147.535156 C 297.714844 145.363281 287.609375 138.960938 287.609375 139.988281 C 287.609375 140.574219 287.007812 140.710938 286.089844 140.3125 C 283.128906 139.359375 280.636719 140.082031 276.996094 138.679688 C 271.65625 136.371094 262.164062 137.820312 256.90625 133.617188 C 254.96875 131.574219 251.957031 131.675781 253.855469 132.972656 C 254.449219 132.972656 254.636719 133.574219 254.328125 134.417969 C 253.378906 135.765625 256.660156 138.65625 256.421875 139.53125 C 256.539062 140.769531 259.746094 143.980469 259.175781 145.789062 C 258.734375 148.320312 260.617188 147.097656 260.75 149.050781 C 261.335938 151.050781 263.394531 150.332031 264.449219 153.839844 C 266.28125 158.40625 273.363281 164.191406 276.007812 167.945312 C 277.847656 171.179688 281.179688 170.730469 282.304688 173.4375 C 282.492188 175.355469 284.980469 176.925781 285.035156 178.726562 C 285.890625 181.574219 297.765625 187.023438 294.429688 188.339844 C 293.800781 189.726562 296.199219 214.757812 298.988281 218.53125 C 300.035156 219.695312 299.917969 224 298.828125 224.675781 C 298.265625 225.027344 298.214844 225.628906 298.707031 226.25 C 299.660156 227.4375 301.53125 233.050781 301.882812 235.757812 C 301.769531 237.652344 304.128906 240.347656 302.246094 241.644531 C 300.257812 242.824219 303.574219 242.019531 303.199219 243.734375 C 303.277344 245.695312 300.902344 244.351562 302.246094 246.628906 C 303.863281 249.824219 299.117188 251.039062 303.839844 253.429688 C 305.71875 254.6875 306.261719 255.777344 306.382812 258.492188 C 306.21875 266.941406 310.132812 267.171875 310.589844 274.941406 C 311.015625 280.496094 311.414062 281.453125 313.277344 281.453125 C 315.550781 280.828125 312.554688 292.078125 314.722656 292.230469 C 316.722656 293.054688 314.433594 301.480469 316.167969 302.261719 C 317.445312 303.050781 318.175781 308.945312 317.082031 309.625 C 315.992188 310.308594 316.933594 313.242188 318.433594 314.503906 C 320.117188 315.855469 319.257812 320.652344 320.824219 322.164062 C 322.640625 324.28125 324.019531 330.9375 322.992188 332.8125 C 322.359375 333.996094 322.472656 334.53125 323.484375 334.914062 C 324.207031 335.199219 324.804688 336.457031 324.804688 337.765625 C 325.1875 341.796875 327.105469 341.738281 326.765625 347.117188 C 326.425781 352.183594 328.5625 354.105469 329.148438 357.789062 C 329.136719 358.261719 329.246094 358.707031 329.480469 359.121094 C 329.710938 359.53125 330.035156 359.855469 330.449219 360.089844 C 332.449219 361.925781 332.089844 370 335.058594 369.933594 C 336.914062 370.289062 334.828125 373.8125 334.753906 375.0625 C 334.449219 376.132812 334.984375 377.234375 336.316406 378.3125 C 339.628906 379.417969 337.246094 390.703125 339.863281 392.375 C 340.734375 393.335938 341.207031 394.542969 340.894531 395.011719 C 339.320312 395.304688 346.492188 402.109375 347.339844 405.011719 C 347.433594 406.753906 350.996094 414.363281 350.804688 416.316406 C 350.640625 418.738281 353.386719 419.832031 353.398438 422.046875 C 353.363281 422.886719 353.652344 423.59375 354.265625 424.164062 C 354.757812 424.460938 355.140625 425.886719 355.140625 427.332031 C 354.851562 430.792969 358.910156 431.984375 358.816406 435.289062 C 358.816406 436.570312 359.128906 437.621094 359.488281 437.621094 C 361.742188 439.515625 362.164062 449.195312 363.050781 453.535156 C 362.777344 458.539062 365.722656 457.722656 366.402344 461.066406 C 366.019531 462.734375 369.207031 466.308594 368.722656 467.660156 C 368.078125 468.515625 370.78125 472.847656 370.089844 473.859375 C 369.863281 474.496094 370.425781 475.199219 371.324219 475.4375 C 373.636719 476.039062 374.164062 479.691406 376.503906 480.5 C 384.855469 484.914062 375.007812 493.421875 380.699219 494.433594 C 382.976562 494.167969 381.457031 496.605469 383.273438 496.605469 C 385.496094 496.75 386.925781 501.59375 389.847656 500.945312 C 392.828125 500.648438 392.605469 502.984375 395.308594 502.390625 C 398.199219 501.847656 400.175781 504.734375 403.390625 504.4375 C 408.800781 504.34375 403.558594 508.503906 410.371094 507.296875 C 416.410156 506.667969 424.820312 509.464844 429.746094 505.992188 Z M 430.578125 475.84375 C 424.855469 475.242188 409.625 476.089844 404.367188 473.621094 C 398.925781 471.902344 402.921875 468.667969 411.511719 469.621094 C 436.074219 470.246094 427.304688 468.898438 441.382812 467.171875 C 443.90625 465.601562 449.214844 466.445312 452.898438 465.09375 C 457.789062 463.75 456.980469 464.695312 460.738281 464.964844 C 462.183594 464.964844 463.136719 465.5 463.308594 466.410156 C 463.691406 468.320312 456.425781 471.871094 453.609375 471.15625 C 452.234375 470.816406 451.398438 471.0625 451.058594 471.929688 C 450.679688 472.914062 450.058594 473.03125 448.433594 472.40625 C 446.808594 470.648438 438.320312 475.957031 436.617188 475.394531 C 434.910156 474.832031 432.691406 476.738281 430.578125 475.871094 Z M 400.898438 457.210938 C 395.335938 451.355469 418.476562 449.5 417.566406 456.925781 C 419.242188 459.363281 404.972656 457.832031 404.921875 457.347656 C 403.644531 456.625 402.519531 458.792969 400.898438 457.210938 Z M 408.125 434.53125 C 404.613281 432.636719 388.386719 435.8125 391.226562 428.5625 C 391.949219 425.574219 392.835938 425.191406 396.28125 426.320312 C 401.304688 428.136719 414.308594 423.160156 417.625 429.027344 C 417.007812 431.535156 412.949219 433.019531 411.222656 434.472656 C 410.421875 435.4375 409.878906 435.449219 408.152344 434.53125 Z M 391.601562 396.878906 C 386.320312 393.074219 382.296875 397.414062 378.476562 394.527344 C 375.246094 391.28125 378.15625 389.183594 384.976562 389.890625 C 387.050781 388.328125 403.40625 388.625 405.925781 388.164062 C 407.972656 387.441406 415.277344 388.226562 417.59375 386.332031 C 420.890625 384.566406 424.140625 384.226562 424.964844 385.542969 C 426.839844 386.355469 431.617188 382.652344 434.355469 383.375 C 438.609375 383.613281 437.417969 382.085938 441.441406 382.109375 C 443.054688 382.109375 444.621094 381.726562 444.910156 381.242188 C 446.015625 379.460938 453.136719 380.472656 453.136719 382.425781 C 453.136719 383.808594 449.257812 388.214844 448.023438 388.214844 C 446.945312 388.0625 443.246094 390.941406 442.199219 390.71875 C 441.152344 390.492188 438.117188 391.839844 437.144531 393.046875 C 435.972656 394.492188 428.0625 395.257812 428.039062 393.964844 C 428.039062 393.304688 427.800781 393.34375 427.355469 394.050781 C 421.574219 396.835938 411.460938 396.375 405.300781 397.320312 C 404.875 397.496094 404.433594 397.566406 403.972656 397.53125 C 403.515625 397.496094 403.089844 397.359375 402.699219 397.117188 C 400.226562 395.324219 394.230469 397.4375 391.667969 396.910156 Z M 383.316406 366.289062 C 383.625 364.5 372.941406 365.796875 372.53125 364.839844 C 371.003906 363.027344 366.027344 361.347656 371.332031 358.945312 C 374.097656 357 374.21875 360.855469 376.90625 358.835938 C 379.421875 357.023438 383.871094 360.742188 385.578125 358.628906 C 387.246094 357.125 390.28125 360.175781 393.285156 359.53125 C 396.476562 359.53125 396.808594 359.75 396.808594 361.703125 C 397.53125 365.261719 384.796875 368.632812 383.34375 366.238281 Z M 381.652344 320.585938 C 377.628906 319.277344 368.417969 319.730469 364.136719 318.855469 C 360.625 319.285156 361.3125 315.839844 359.011719 315.3125 C 357.472656 315.3125 357.570312 309.527344 359.121094 308.910156 C 363.507812 308.988281 372.507812 311.601562 378.367188 311.289062 C 384.636719 311.238281 384.253906 311.871094 387.195312 312.738281 C 389.679688 312.550781 391.089844 318.4375 387.59375 317.589844 C 386.828125 317.292969 386.386719 317.714844 386.386719 318.734375 C 386.386719 320.902344 382.773438 322.351562 381.652344 320.609375 Z M 353.242188 277.949219 C 346.429688 275.207031 352.726562 271.257812 356.628906 272.886719 C 358.398438 274.722656 359.902344 270.679688 361.6875 272.769531 C 365.097656 273.941406 367.054688 271.257812 374.691406 271.417969 C 384.203125 271.207031 386.25 268.683594 393.472656 268.90625 C 398.59375 269.507812 398.703125 269.507812 400.90625 268.84375 C 402.128906 268.46875 402.855469 268.605469 402.855469 269.203125 C 402.855469 270.558594 406.46875 270.421875 408.515625 268.996094 C 411.144531 267.171875 427.125 266.824219 427.125 268.582031 C 427.484375 270.5 426.257812 269.660156 425.339844 271.121094 C 424.421875 272.582031 421.617188 272.316406 420.59375 273.980469 C 417.769531 276.417969 404.382812 275.207031 405.371094 276.871094 C 400.574219 277.992188 380.882812 276.046875 379.464844 278.730469 C 379.828125 279.417969 364.386719 279.808594 364.742188 278.882812 C 361.390625 278.074219 356.695312 281.117188 353.253906 277.929688 Z M 352.878906 254.757812 C 349.367188 254.5625 348.984375 251.953125 345.53125 251.988281 C 342.644531 251.988281 341.457031 250.019531 343.148438 247.980469 C 343.90625 245.914062 350.285156 248.117188 351.304688 246.773438 C 351.4375 246.53125 351.636719 246.375 351.898438 246.296875 C 352.164062 246.222656 352.414062 246.25 352.65625 246.382812 C 352.199219 249.628906 377.773438 244.398438 375.585938 250.289062 C 371.0625 255.121094 359.300781 253.3125 352.878906 254.757812 Z M 350.191406 214.53125 C 349.65625 213.273438 340.886719 213.707031 340.46875 212.652344 C 339.277344 211.589844 333.019531 213.765625 331.894531 211.515625 C 324.980469 206.039062 338.351562 201.273438 340.085938 203.472656 C 340.363281 203.765625 340.699219 203.960938 341.089844 204.058594 C 341.480469 204.160156 341.871094 204.144531 342.253906 204.015625 C 342.449219 203.945312 342.652344 203.914062 342.863281 203.921875 C 343.070312 203.929688 343.269531 203.972656 343.464844 204.054688 C 343.65625 204.136719 343.828125 204.25 343.976562 204.394531 C 344.125 204.539062 344.246094 204.707031 344.332031 204.898438 C 344.175781 206.953125 350.777344 204.5 350.835938 205.960938 C 350.894531 207.421875 357.511719 207.066406 358.058594 205.578125 C 358.78125 203.761719 362.796875 203.941406 366.691406 205.929688 C 374.074219 209.691406 373.734375 211.515625 365.492188 212.375 C 359.65625 212.46875 354.230469 217.058594 350.140625 214.546875 Z M 542.355469 491.425781 C 544.8125 489.976562 539.375 490.578125 539.324219 491.425781 C 538.636719 492.53125 540.636719 492.53125 542.34375 491.425781 Z M 554.492188 485.679688 C 555.425781 482.121094 548.859375 489.144531 552.671875 487.351562 C 553.671875 487.089844 554.492188 486.339844 554.492188 485.679688 Z M 608.277344 393.277344 C 608.527344 392.980469 608.835938 392.792969 609.210938 392.703125 C 609.585938 392.617188 609.949219 392.652344 610.300781 392.808594 C 613.609375 392.65625 618.246094 387.230469 622.121094 389.914062 C 623.796875 391.75 627.667969 386.226562 629.292969 387.019531 C 630.578125 387.792969 636.019531 386.933594 637.242188 388.148438 C 638.101562 388.871094 638.503906 388.691406 638.910156 387.425781 C 639.472656 385.644531 644.457031 383.441406 650.222656 382.414062 C 654.558594 381.804688 654.40625 379.351562 658.53125 378.847656 C 664.96875 377.914062 674.285156 378.023438 676.816406 371.011719 C 676.625 370.164062 677.480469 369.882812 679.847656 369.984375 C 684.253906 370.1875 687.382812 368.8125 689.730469 365.644531 C 691.210938 363.632812 692.128906 363.140625 693.648438 363.519531 C 695.816406 364.785156 699.078125 359.757812 700.566406 359.496094 C 701.347656 359.714844 709.722656 351.539062 710.472656 351.707031 C 710.863281 351.707031 711.308594 350.832031 711.453125 349.757812 C 711.359375 347.371094 717.734375 345.042969 716.996094 342.734375 C 716.628906 339.972656 723.042969 339.261719 723.496094 335.9375 C 724.113281 333.195312 731.089844 327.566406 730.640625 324.917969 C 730.566406 324.375 730.613281 323.84375 730.78125 323.320312 C 730.953125 322.796875 731.226562 322.339844 731.609375 321.945312 C 733.171875 320.875 733.640625 315.847656 734.730469 314.8125 C 735.867188 314.589844 733.496094 306.257812 735.886719 307.964844 C 738.183594 309.003906 736.796875 303.730469 738.660156 303.074219 C 740.496094 302.253906 738.660156 298.53125 739.859375 297.914062 C 742.289062 297.191406 743.710938 288.222656 745.523438 285.996094 C 746.542969 285.421875 746.636719 284.671875 745.964844 282.328125 C 743.855469 276.164062 749.640625 270.804688 750.191406 265.480469 C 749.640625 261.863281 752.792969 259.742188 751.253906 256.183594 C 749.511719 253.050781 753.90625 248.523438 753.761719 245.449219 C 753.796875 244.800781 753.96875 244.1875 754.269531 243.609375 C 754.570312 243.035156 754.976562 242.542969 755.488281 242.144531 C 758.085938 241.421875 756.246094 234 758.058594 232.871094 C 759.617188 231.34375 757.558594 230.121094 759.503906 227.703125 C 760.839844 225.425781 760.863281 224.976562 759.691406 223.199219 C 758.519531 221.417969 758.535156 221.101562 760.484375 219.421875 C 763.695312 217.648438 762.429688 208.3125 764.589844 205.679688 C 765.390625 204.46875 765.824219 203.101562 765.566406 202.675781 C 765.808594 200.035156 768.929688 199.441406 767.890625 194.921875 C 766.921875 186.496094 768.441406 186.753906 768.613281 181.902344 C 769.429688 174.4375 774.253906 162.609375 771.199219 155.460938 C 769.921875 153.574219 772.585938 150.570312 770.636719 148.171875 C 768.851562 144.988281 771.640625 144.957031 768.765625 142.179688 C 764.84375 139.332031 770.5625 137.515625 765.613281 136.113281 C 761.960938 135.65625 761.785156 129.382812 760.960938 127.070312 C 760.925781 124.054688 755.394531 120.949219 755.488281 117.664062 C 755.328125 114.640625 753.457031 117.355469 751.101562 114.867188 C 747.359375 111.328125 735.292969 113.296875 731.839844 113.3125 C 730.519531 111.742188 723 115.023438 721.621094 113.3125 C 719.257812 111.675781 719.515625 114.648438 716.816406 113.796875 C 715.660156 113.570312 714.496094 113.796875 714.230469 114.207031 C 706.945312 115.300781 700.25 117.101562 692.289062 118.019531 C 685.742188 117.296875 678.316406 122.171875 671.910156 123.082031 C 665.71875 124.140625 657.964844 127.113281 652.230469 128.292969 C 650.75 129.839844 647.136719 129.132812 646.3125 130.542969 C 643.25 132.488281 639.914062 131.039062 641.171875 138.222656 C 642.125 142.050781 640.5 143.105469 641.894531 145.601562 C 642.613281 146.484375 642.449219 147.136719 641.171875 148.300781 C 639.480469 149.839844 639.449219 150.238281 640.792969 157.199219 C 641.632812 160.230469 639.457031 163.832031 640.296875 166.550781 C 640.472656 167.011719 640.539062 167.484375 640.5 167.976562 C 640.460938 168.464844 640.320312 168.925781 640.070312 169.351562 C 638.886719 170.71875 640.519531 172.546875 639.148438 173.828125 C 638.425781 174.550781 638.867188 174.550781 641.019531 173.828125 C 645.730469 171.605469 644.441406 170.398438 650.921875 167.410156 C 656.832031 165.015625 657.273438 161.914062 661.5 160.902344 C 663.90625 161.207031 664 158.933594 666.035156 159.554688 C 669.179688 159.136719 674.769531 157.785156 678 156.191406 C 681.386719 154.128906 681.308594 156.265625 685.503906 154.128906 C 692.605469 151.765625 696.949219 148.417969 702.332031 149.710938 C 703.414062 150.613281 703.777344 150.59375 704.402344 149.617188 C 705.03125 148.640625 705.496094 148.589844 707.292969 149.542969 C 711.875 151.078125 713.519531 148.019531 720.476562 148.566406 C 729.003906 149.40625 727.953125 144.277344 734.203125 148.863281 C 734.925781 149.882812 735.921875 150.417969 736.472656 150.078125 C 738.363281 149.726562 738.316406 153.574219 740.929688 154.332031 C 746.515625 157.371094 743.59375 161.15625 744.324219 164.386719 C 745.496094 164.386719 746.917969 168.292969 747.480469 173.070312 C 748.925781 185.851562 747.605469 185.648438 745.625 193.886719 C 745.15625 195.40625 744.425781 213.417969 742.503906 218.902344 C 741.226562 219.988281 741.890625 225.027344 740.335938 226.375 C 738.640625 228.484375 739.414062 231.660156 738.171875 233.917969 C 736.726562 237.210938 740.070312 237 737.347656 241.210938 C 735.382812 246 734.160156 251.164062 730.179688 254.746094 C 729.777344 256.414062 729.378906 263.300781 727.144531 264.921875 C 722.175781 270.246094 720.949219 280.222656 717.976562 286.820312 C 716.324219 291.773438 716.027344 296.5625 712.464844 300.5625 C 710.753906 301.460938 709.054688 311.082031 707.667969 311.855469 C 707.230469 311.855469 707.085938 312.773438 707.367188 313.886719 C 708.328125 317.113281 703.335938 317.503906 702.671875 320.660156 C 700.800781 324.476562 699.605469 322.488281 696.730469 326.929688 C 694.644531 330.996094 689.066406 331.566406 687.117188 333.933594 C 687.117188 335.269531 682.058594 338.230469 678.878906 338.75 C 677.210938 339.039062 676.289062 339.703125 676.273438 340.636719 C 676.273438 342.648438 671.785156 346.613281 670.210938 346.003906 C 669.445312 345.707031 668.917969 346.003906 668.917969 346.730469 C 668.195312 348.746094 663.058594 348.007812 661.652344 350.445312 C 659.816406 353.753906 654.425781 350.828125 652.46875 353.066406 C 651.132812 354.832031 649.925781 352.769531 648.648438 354.511719 C 647 356.683594 642.304688 359.574219 640.476562 359.574219 C 636.539062 360.371094 634.363281 364.480469 629.691406 365.082031 C 623.804688 366.222656 622.386719 370.992188 618.046875 370.410156 C 610.046875 368.515625 607.085938 377.492188 606.542969 383.035156 C 606.71875 385.203125 602.347656 386.652344 603.308594 389.015625 C 603.566406 389.992188 603.429688 390.804688 602.988281 390.804688 C 602.550781 390.804688 602.210938 391.945312 602.210938 393.34375 C 601.070312 397.652344 607.316406 394.289062 608.265625 393.277344 Z M 621.210938 358.257812 C 624.960938 354.484375 632.414062 355.742188 634.214844 350.902344 C 634.214844 349.707031 634.820312 349.109375 636.148438 349 C 643.980469 349.078125 645.859375 346.828125 651.625 342.207031 C 656.476562 339.21875 662.863281 335.796875 668.710938 335.90625 C 671.070312 335.871094 671.519531 335.574219 671.164062 334.257812 C 669.988281 331.25 679.148438 331.941406 677.148438 330.148438 C 676.300781 328.789062 677.632812 326.597656 679.3125 326.597656 C 683.511719 324.875 686.34375 322.734375 689.925781 319.117188 C 692.527344 315.652344 696.363281 314.054688 696.617188 309.945312 C 696.246094 306.914062 698.597656 308.164062 699.210938 306.640625 C 699.210938 306.167969 700.054688 304.800781 701.101562 303.617188 C 704.714844 298.949219 705.574219 291.949219 707.242188 286.882812 C 706.96875 286.203125 707.519531 285.515625 708.550781 285.25 C 710.210938 284.816406 711.359375 282.414062 711.757812 278.515625 C 712.011719 276.199219 715.6875 274.457031 715.53125 271.867188 C 715.832031 265.203125 718.867188 259.96875 720.796875 254.585938 C 721.199219 254.585938 721.777344 252.988281 722.089844 251.019531 C 722.457031 246.765625 725.910156 245.847656 726.230469 242.007812 C 726.761719 237.773438 728.914062 237.152344 728.9375 231.945312 C 728.691406 225.605469 731.589844 229 731.03125 226.027344 C 730.914062 225.523438 730.925781 225.027344 731.070312 224.53125 C 731.210938 224.039062 731.46875 223.609375 731.835938 223.25 C 733.714844 222.128906 731.546875 217.527344 732.882812 216.132812 C 734.328125 215.488281 735.453125 204.953125 737.535156 201.5625 C 738.039062 201.242188 737.910156 200.316406 737.222656 199.210938 C 735.308594 196.214844 738.8125 191.5 738.175781 187.636719 C 737.699219 177.785156 740.191406 167.6875 734.371094 160.019531 C 728.828125 152.972656 713.550781 157.421875 705.828125 158.914062 C 703.914062 159.789062 697.714844 158.765625 695.648438 160.316406 C 694.238281 161.039062 692.890625 161.25 692.035156 160.769531 C 690.121094 159.492188 690.324219 162.941406 688.425781 162.082031 C 686.257812 161.71875 687.703125 164.15625 683.28125 163.382812 C 679.726562 162.769531 678.222656 164.988281 675.910156 164.828125 C 674.9375 164.191406 663.023438 168.824219 662.828125 168.5625 C 662.828125 169.03125 661.585938 169.675781 660.0625 170.007812 C 657.894531 169.546875 647.78125 180.339844 647.238281 181.894531 C 645.84375 182.617188 641.460938 185.003906 641.277344 187.320312 C 641.277344 187.804688 640.433594 189.078125 639.402344 190.148438 C 638.367188 191.21875 637.746094 192.664062 638.070312 193.519531 C 638.375 196.839844 635.425781 199.023438 636.027344 203.582031 C 636.953125 215.582031 633.859375 220.941406 634.175781 225.417969 C 635.671875 228.710938 632.011719 242.636719 631.460938 246.253906 C 630.449219 248.914062 630.40625 275.96875 629.460938 277.914062 C 629.632812 282.382812 627.414062 283.75 628.144531 290.558594 C 629.523438 307.433594 626.519531 302.445312 625.679688 312.128906 C 625.847656 314.929688 625.488281 316.558594 624.394531 317.765625 C 620.964844 323.183594 628.511719 317.765625 620.292969 333.425781 C 618.015625 338.5625 618.421875 343.660156 616.917969 347.894531 C 616.863281 348.679688 616.648438 349.421875 616.269531 350.113281 C 615.890625 350.804688 615.382812 351.386719 614.75 351.855469 C 608.710938 357.867188 615.785156 363.453125 621.195312 358.257812 Z M 355.640625 162.628906 C 356.363281 161.363281 354.195312 161.617188 354.332031 162.628906 C 354.375 163.945312 355.054688 163.550781 355.640625 162.628906 Z M 417.007812 161.980469 C 417.507812 161.183594 411.730469 161.257812 410.925781 162.066406 C 410.523438 163.007812 417.167969 162.578125 417.007812 161.980469 Z M 424.507812 161.746094 C 425.28125 160.222656 417.933594 159.890625 419.34375 161.746094 C 420.699219 162.59375 424.507812 162.574219 424.507812 161.746094 Z M 382.5 160.894531 C 382.796875 160.417969 382.40625 160.027344 381.632812 160.027344 C 379.464844 160.027344 381.769531 163.050781 382.5 160.894531 Z M 430.582031 160.375 C 430.433594 159.839844 427.832031 159.902344 427.976562 160.867188 C 427.976562 162 430.632812 160.75 430.582031 160.375 Z M 384.296875 152.511719 C 387.585938 150.96875 387.644531 152.996094 393.125 152.761719 C 398.117188 152.378906 402.375 154.933594 405.40625 152.675781 C 407.429688 150.746094 409.148438 153.363281 412.269531 152.132812 C 415.515625 151.011719 415.101562 152.910156 416.929688 152.511719 C 421.894531 152.011719 443.203125 150.28125 447.769531 150.710938 C 449.9375 151.535156 450.660156 151.433594 452.03125 150.210938 C 454.980469 148.191406 454.792969 150.117188 459.734375 148.234375 C 462.515625 147.402344 465.3125 146.789062 465.945312 146.917969 C 468.429688 146.707031 470.09375 144.257812 473.445312 144.023438 C 475.34375 143.683594 477.136719 143.035156 477.417969 142.578125 C 478.546875 141.304688 484.136719 141.414062 485.597656 140.320312 C 488.789062 138.613281 493.757812 137.578125 494.332031 138.484375 C 496 140.300781 505.167969 137.304688 508.25 138.144531 C 512.960938 138.679688 533.535156 139.351562 537.734375 136.992188 C 540.039062 134.417969 545.535156 136.820312 549.464844 134 C 553.332031 131.980469 564.355469 129.542969 566.269531 130.273438 C 566.441406 130.324219 566.613281 130.339844 566.792969 130.320312 C 566.96875 130.300781 567.136719 130.25 567.292969 130.164062 C 567.449219 130.082031 567.582031 129.96875 567.695312 129.832031 C 567.808594 129.695312 567.894531 129.539062 567.945312 129.371094 C 567.945312 127.199219 573.515625 129.695312 573.523438 127.988281 C 576.722656 127.191406 588.730469 125.320312 591.777344 121.722656 C 592.058594 121.28125 593.648438 120.832031 595.316406 120.726562 C 598.265625 120.914062 602.160156 117.464844 604.507812 117.375 C 606.167969 117.613281 610.332031 114.1875 611.933594 113.757812 C 614.058594 113.09375 613.882812 109.851562 616.058594 109.253906 C 617.734375 108.71875 618.347656 107.082031 616.882812 107.082031 C 616.390625 107.082031 616.269531 105.210938 616.585938 102.523438 C 617.589844 94.089844 615.734375 103.148438 610.617188 97.628906 C 607.066406 94.632812 605.886719 95.984375 603.835938 93.207031 C 602.125 90.53125 600.265625 91.90625 597.695312 88.925781 C 594.292969 85.519531 593.597656 88.035156 589.964844 85.394531 C 587.796875 83.347656 585.863281 84.605469 584.777344 83.695312 C 584.488281 82.558594 576.109375 84.015625 576.363281 82.191406 C 575.132812 78.191406 553.113281 76.085938 547.089844 74.125 C 545.457031 72.75 536.253906 71.957031 536.253906 73.191406 C 535.625 76.585938 531.136719 70.53125 529.980469 71.746094 C 528.828125 72.960938 526.617188 70.726562 524.160156 71.375 C 519.253906 72.207031 512.390625 70.328125 508.582031 72.332031 C 508.0625 73.164062 507.101562 73.191406 504.25 72.410156 C 499.417969 71.109375 485.082031 70.53125 483.820312 71.585938 C 481.933594 72.902344 477.230469 69.691406 475.148438 71.425781 C 473.554688 72.152344 472.601562 72.152344 471.320312 71.332031 C 466.800781 69.792969 464.097656 75.183594 457.277344 71.976562 C 453.609375 70.90625 453.007812 70.929688 451.765625 72.179688 C 450.636719 73.316406 450.046875 73.378906 448.710938 72.542969 C 447.371094 71.703125 445.933594 71.816406 441.753906 72.875 C 434.695312 74.015625 432.289062 74.523438 425.707031 74.109375 C 423.207031 73.539062 422.09375 73.683594 420.984375 74.660156 C 419.320312 76.601562 415.714844 74.304688 414.0625 76.035156 C 413.535156 77.578125 396.722656 77.136719 395.71875 78.269531 C 391.492188 82.292969 387.648438 75.507812 384.160156 77.726562 C 383.65625 78.761719 380.304688 78.054688 380.324219 79.679688 C 380.179688 84.398438 372.558594 78.140625 372.535156 80.519531 C 371.324219 86.871094 365.847656 80.410156 363.144531 81.628906 C 362.265625 82.945312 359.535156 83.796875 359.535156 82.71875 C 359.246094 81.308594 353.421875 83.390625 352.597656 83.074219 C 350.648438 83.125 349.21875 85.011719 347.101562 85.191406 C 346.074219 85.34375 345.097656 85.851562 344.933594 86.308594 C 344.535156 87.488281 341.632812 87.371094 339.609375 86.097656 C 338.164062 84.210938 330.867188 87.6875 329.429688 86.097656 C 328.640625 85.453125 328.203125 85.589844 327.8125 86.605469 C 327.398438 88.425781 324.070312 87.449219 323.988281 89.300781 C 323.988281 90.183594 323.109375 90.605469 321.246094 90.605469 C 317.515625 90.605469 312.734375 92.417969 312.734375 93.832031 C 311.441406 96.558594 307.308594 96.703125 303.847656 98.808594 C 297.449219 102.519531 291.011719 102.234375 286.902344 105.601562 C 286.753906 105.832031 286.570312 106.03125 286.359375 106.203125 C 286.144531 106.375 285.90625 106.503906 285.648438 106.597656 C 285.390625 106.6875 285.121094 106.734375 284.847656 106.738281 C 284.574219 106.742188 284.308594 106.699219 284.046875 106.613281 C 280.234375 106.324219 275.871094 110.300781 271.59375 110.148438 C 267.511719 112.398438 256.890625 115.445312 257.511719 121.042969 C 258.175781 121.101562 265.703125 121.855469 266.058594 122.882812 C 266.78125 124.160156 270.4375 122.15625 271.117188 123.480469 C 273.941406 125.324219 284.121094 127.9375 287.226562 128.457031 C 294.585938 128.667969 294.007812 131.171875 302.058594 130.9375 C 310.4375 130.375 310.003906 134.453125 315.882812 136.640625 C 318.636719 137.1875 318.332031 138.542969 319.496094 139.027344 C 320.882812 138.925781 324.207031 141.390625 325.910156 140.660156 C 328.121094 139.628906 329.320312 144.277344 328.6875 145.488281 C 328.347656 146.027344 328.503906 146.167969 329.070312 145.8125 C 329.632812 145.457031 330.867188 146.035156 331.878906 147.050781 C 333.519531 149.21875 335.265625 147.65625 336.378906 148.929688 C 336.648438 150.289062 351.550781 151.640625 355.667969 151.988281 C 366.28125 151.0625 376.292969 155.789062 384.296875 152.511719 Z M 384.296875 152.511719"/></svg>